<svg width="41" height="39" viewBox="0 0 41 39" fill="none" xmlns="http://www.w3.org/2000/svg">
<path fill-rule="evenodd" clip-rule="evenodd" d="M11.8719 11.5983C10.7989 8.24832 12.0529 4.41932 15.5699 3.28632C17.4199 2.68932 19.4619 3.04132 20.9999 4.19832C22.4549 3.07332 24.5719 2.69332 26.4199 3.28632C29.9369 4.41932 31.1989 8.24832 30.1269 11.5983C28.4569 16.9083 20.9999 20.9983 20.9999 20.9983C20.9999 20.9983 13.5979 16.9703 11.8719 11.5983Z" stroke="#AAAAAA" stroke-width="1.5" stroke-linecap="round" stroke-linejoin="round"/>
<path d="M25 6.70001C26.07 7.04601 26.826 8.00101 26.917 9.12201" stroke="#AAAAAA" stroke-width="1.5" stroke-linecap="round" stroke-linejoin="round"/>
<path d="M3.50293 29.5205L1.14941 36H0.1875L2.89746 28.8906H3.51758L3.50293 29.5205ZM5.47559 36L3.11719 29.5205L3.10254 28.8906H3.72266L6.44238 36H5.47559ZM5.35352 33.3682V34.1396H1.35938V33.3682H5.35352ZM9.37207 35.3555C9.58691 35.3555 9.78548 35.3115 9.96777 35.2236C10.1501 35.1357 10.2998 35.0153 10.417 34.8623C10.5342 34.7061 10.6009 34.5286 10.6172 34.3301H11.4766C11.4603 34.6426 11.3545 34.9339 11.1592 35.2041C10.9671 35.471 10.7148 35.6875 10.4023 35.8535C10.0898 36.0163 9.74642 36.0977 9.37207 36.0977C8.97493 36.0977 8.62826 36.0277 8.33203 35.8877C8.03906 35.7477 7.79492 35.5557 7.59961 35.3115C7.40755 35.0674 7.2627 34.7874 7.16504 34.4717C7.07064 34.1527 7.02344 33.8158 7.02344 33.4609V33.2559C7.02344 32.901 7.07064 32.5658 7.16504 32.25C7.2627 31.931 7.40755 31.6494 7.59961 31.4053C7.79492 31.1611 8.03906 30.9691 8.33203 30.8291C8.62826 30.6891 8.97493 30.6191 9.37207 30.6191C9.78548 30.6191 10.1468 30.7038 10.4561 30.873C10.7653 31.0391 11.0078 31.2669 11.1836 31.5566C11.3626 31.8431 11.4603 32.1686 11.4766 32.5332H10.6172C10.6009 32.3151 10.5391 32.1182 10.4316 31.9424C10.3275 31.7666 10.1842 31.6266 10.002 31.5225C9.82292 31.415 9.61296 31.3613 9.37207 31.3613C9.09538 31.3613 8.86263 31.4167 8.67383 31.5273C8.48828 31.6348 8.34017 31.7812 8.22949 31.9668C8.12207 32.1491 8.04395 32.3525 7.99512 32.5771C7.94954 32.7985 7.92676 33.0247 7.92676 33.2559V33.4609C7.92676 33.6921 7.94954 33.9199 7.99512 34.1445C8.04069 34.3691 8.11719 34.5726 8.22461 34.7549C8.33529 34.9372 8.4834 35.0837 8.66895 35.1943C8.85775 35.3018 9.09212 35.3555 9.37207 35.3555ZM14.7041 30.7168V31.4102H11.8477V30.7168H14.7041ZM12.8145 29.4326H13.7178V34.6914C13.7178 34.8704 13.7454 35.0055 13.8008 35.0967C13.8561 35.1878 13.9277 35.248 14.0156 35.2773C14.1035 35.3066 14.1979 35.3213 14.2988 35.3213C14.3737 35.3213 14.4518 35.3148 14.5332 35.3018C14.6178 35.2855 14.6813 35.2725 14.7236 35.2627L14.7285 36C14.6569 36.0228 14.5625 36.0439 14.4453 36.0635C14.3314 36.0863 14.193 36.0977 14.0303 36.0977C13.8089 36.0977 13.6055 36.0537 13.4199 35.9658C13.2344 35.8779 13.0863 35.7314 12.9756 35.5264C12.8682 35.318 12.8145 35.0381 12.8145 34.6865V29.4326ZM16.7451 30.7168V36H15.8369V30.7168H16.7451ZM15.7686 29.3154C15.7686 29.1689 15.8125 29.0452 15.9004 28.9443C15.9915 28.8434 16.125 28.793 16.3008 28.793C16.4733 28.793 16.6051 28.8434 16.6963 28.9443C16.7907 29.0452 16.8379 29.1689 16.8379 29.3154C16.8379 29.4554 16.7907 29.5758 16.6963 29.6768C16.6051 29.7744 16.4733 29.8232 16.3008 29.8232C16.125 29.8232 15.9915 29.7744 15.9004 29.6768C15.8125 29.5758 15.7686 29.4554 15.7686 29.3154ZM19.8018 35.1846L21.2471 30.7168H22.1699L20.2705 36H19.665L19.8018 35.1846ZM18.5957 30.7168L20.085 35.209L20.1875 36H19.582L17.668 30.7168H18.5957ZM24.0205 30.7168V36H23.1123V30.7168H24.0205ZM23.0439 29.3154C23.0439 29.1689 23.0879 29.0452 23.1758 28.9443C23.2669 28.8434 23.4004 28.793 23.5762 28.793C23.7487 28.793 23.8805 28.8434 23.9717 28.9443C24.0661 29.0452 24.1133 29.1689 24.1133 29.3154C24.1133 29.4554 24.0661 29.5758 23.9717 29.6768C23.8805 29.7744 23.7487 29.8232 23.5762 29.8232C23.4004 29.8232 23.2669 29.7744 23.1758 29.6768C23.0879 29.5758 23.0439 29.4554 23.0439 29.3154ZM27.6826 30.7168V31.4102H24.8262V30.7168H27.6826ZM25.793 29.4326H26.6963V34.6914C26.6963 34.8704 26.724 35.0055 26.7793 35.0967C26.8346 35.1878 26.9062 35.248 26.9941 35.2773C27.082 35.3066 27.1764 35.3213 27.2773 35.3213C27.3522 35.3213 27.4303 35.3148 27.5117 35.3018C27.5964 35.2855 27.6598 35.2725 27.7021 35.2627L27.707 36C27.6354 36.0228 27.541 36.0439 27.4238 36.0635C27.3099 36.0863 27.1715 36.0977 27.0088 36.0977C26.7874 36.0977 26.584 36.0537 26.3984 35.9658C26.2129 35.8779 26.0648 35.7314 25.9541 35.5264C25.8467 35.318 25.793 35.0381 25.793 34.6865V29.4326ZM29.7236 30.7168V36H28.8154V30.7168H29.7236ZM28.7471 29.3154C28.7471 29.1689 28.791 29.0452 28.8789 28.9443C28.9701 28.8434 29.1035 28.793 29.2793 28.793C29.4518 28.793 29.5837 28.8434 29.6748 28.9443C29.7692 29.0452 29.8164 29.1689 29.8164 29.3154C29.8164 29.4554 29.7692 29.5758 29.6748 29.6768C29.5837 29.7744 29.4518 29.8232 29.2793 29.8232C29.1035 29.8232 28.9701 29.7744 28.8789 29.6768C28.791 29.5758 28.7471 29.4554 28.7471 29.3154ZM33.3662 36.0977C32.9984 36.0977 32.6647 36.0358 32.3652 35.9121C32.069 35.7852 31.8135 35.6077 31.5986 35.3799C31.387 35.152 31.2243 34.8818 31.1104 34.5693C30.9964 34.2568 30.9395 33.915 30.9395 33.5439V33.3389C30.9395 32.9092 31.0029 32.5267 31.1299 32.1914C31.2568 31.8529 31.4294 31.5664 31.6475 31.332C31.8656 31.0977 32.113 30.9202 32.3896 30.7998C32.6663 30.6794 32.9528 30.6191 33.249 30.6191C33.6266 30.6191 33.9521 30.6842 34.2256 30.8145C34.5023 30.9447 34.7285 31.127 34.9043 31.3613C35.0801 31.5924 35.2103 31.8659 35.2949 32.1816C35.3796 32.4941 35.4219 32.8359 35.4219 33.207V33.6123H31.4766V32.875H34.5186V32.8066C34.5055 32.5723 34.4567 32.3444 34.3721 32.123C34.2907 31.9017 34.1605 31.7194 33.9814 31.5762C33.8024 31.4329 33.5583 31.3613 33.249 31.3613C33.0439 31.3613 32.8551 31.4053 32.6826 31.4932C32.5101 31.5778 32.362 31.7048 32.2383 31.874C32.1146 32.0433 32.0186 32.25 31.9502 32.4941C31.8818 32.7383 31.8477 33.0199 31.8477 33.3389V33.5439C31.8477 33.7946 31.8818 34.0306 31.9502 34.252C32.0218 34.4701 32.1243 34.6621 32.2578 34.8281C32.3945 34.9941 32.5589 35.1243 32.751 35.2188C32.9463 35.3132 33.1676 35.3604 33.415 35.3604C33.734 35.3604 34.0042 35.2952 34.2256 35.165C34.4469 35.0348 34.6406 34.8607 34.8066 34.6426L35.3535 35.0771C35.2396 35.2497 35.0947 35.4141 34.9189 35.5703C34.7432 35.7266 34.5267 35.8535 34.2695 35.9512C34.0156 36.0488 33.7145 36.0977 33.3662 36.0977ZM39.5527 34.5986C39.5527 34.4684 39.5234 34.348 39.4648 34.2373C39.4095 34.1234 39.2939 34.0208 39.1182 33.9297C38.9456 33.8353 38.6852 33.7539 38.3369 33.6855C38.0439 33.6237 37.7786 33.5505 37.541 33.4658C37.3066 33.3812 37.1064 33.2786 36.9404 33.1582C36.7777 33.0378 36.6523 32.8962 36.5645 32.7334C36.4766 32.5706 36.4326 32.3802 36.4326 32.1621C36.4326 31.9538 36.4782 31.7568 36.5693 31.5713C36.6637 31.3857 36.7956 31.2214 36.9648 31.0781C37.1374 30.9349 37.3441 30.8226 37.585 30.7412C37.8258 30.6598 38.0944 30.6191 38.3906 30.6191C38.8138 30.6191 39.1751 30.694 39.4746 30.8438C39.7741 30.9935 40.0036 31.1937 40.1631 31.4443C40.3226 31.6917 40.4023 31.9668 40.4023 32.2695H39.499C39.499 32.123 39.4551 31.9814 39.3672 31.8447C39.2826 31.7048 39.1572 31.5892 38.9912 31.498C38.8285 31.4069 38.6283 31.3613 38.3906 31.3613C38.14 31.3613 37.9365 31.4004 37.7803 31.4785C37.6273 31.5534 37.515 31.6494 37.4434 31.7666C37.375 31.8838 37.3408 32.0075 37.3408 32.1377C37.3408 32.2354 37.3571 32.3232 37.3896 32.4014C37.4255 32.4762 37.4873 32.5462 37.5752 32.6113C37.6631 32.6732 37.7868 32.7318 37.9463 32.7871C38.1058 32.8424 38.3092 32.8978 38.5566 32.9531C38.9896 33.0508 39.346 33.168 39.626 33.3047C39.9059 33.4414 40.1143 33.609 40.251 33.8076C40.3877 34.0062 40.4561 34.2471 40.4561 34.5303C40.4561 34.7614 40.4072 34.973 40.3096 35.165C40.2152 35.3571 40.0768 35.5231 39.8945 35.6631C39.7155 35.7998 39.5007 35.9072 39.25 35.9854C39.0026 36.0602 38.7243 36.0977 38.415 36.0977C37.9495 36.0977 37.5557 36.0146 37.2334 35.8486C36.9111 35.6826 36.667 35.4678 36.501 35.2041C36.335 34.9404 36.252 34.6621 36.252 34.3691H37.1602C37.1732 34.6165 37.2448 34.8135 37.375 34.96C37.5052 35.1032 37.6647 35.2057 37.8535 35.2676C38.0423 35.3262 38.2295 35.3555 38.415 35.3555C38.6624 35.3555 38.8691 35.3229 39.0352 35.2578C39.2044 35.1927 39.333 35.1032 39.4209 34.9893C39.5088 34.8753 39.5527 34.7451 39.5527 34.5986Z" fill="#AAAAAA"/>
</svg>
