<svg width="30" height="39" viewBox="0 0 30 39" fill="none" xmlns="http://www.w3.org/2000/svg">
<path d="M5.55664 33.7393H6.49414C6.44531 34.1885 6.31673 34.5905 6.1084 34.9453C5.90007 35.3001 5.60547 35.5817 5.22461 35.79C4.84375 35.9951 4.36849 36.0977 3.79883 36.0977C3.38216 36.0977 3.00293 36.0195 2.66113 35.8633C2.32259 35.707 2.03125 35.4857 1.78711 35.1992C1.54297 34.9095 1.35417 34.5628 1.2207 34.1592C1.09049 33.7523 1.02539 33.2998 1.02539 32.8018V32.0938C1.02539 31.5957 1.09049 31.1449 1.2207 30.7412C1.35417 30.3343 1.5446 29.986 1.79199 29.6963C2.04264 29.4066 2.34375 29.1836 2.69531 29.0273C3.04688 28.8711 3.44238 28.793 3.88184 28.793C4.41895 28.793 4.87305 28.8939 5.24414 29.0957C5.61523 29.2975 5.90332 29.5775 6.1084 29.9355C6.31673 30.2904 6.44531 30.7021 6.49414 31.1709H5.55664C5.51107 30.8389 5.42643 30.554 5.30273 30.3164C5.17904 30.0755 5.00326 29.89 4.77539 29.7598C4.54753 29.6296 4.24967 29.5645 3.88184 29.5645C3.56608 29.5645 3.28776 29.6247 3.04688 29.7451C2.80924 29.8656 2.60905 30.0365 2.44629 30.2578C2.28678 30.4792 2.16634 30.7445 2.08496 31.0537C2.00358 31.363 1.96289 31.7064 1.96289 32.084V32.8018C1.96289 33.1501 1.9987 33.4772 2.07031 33.7832C2.14518 34.0892 2.25749 34.3577 2.40723 34.5889C2.55697 34.82 2.7474 35.0023 2.97852 35.1357C3.20964 35.266 3.48307 35.3311 3.79883 35.3311C4.19922 35.3311 4.51823 35.2676 4.75586 35.1406C4.99349 35.0137 5.17253 34.8314 5.29297 34.5938C5.41667 34.3561 5.50456 34.0713 5.55664 33.7393ZM8.54492 31.5469V36H7.6416V30.7168H8.52051L8.54492 31.5469ZM10.1953 30.6875L10.1904 31.5273C10.1156 31.5111 10.0439 31.5013 9.97559 31.498C9.91048 31.4915 9.83561 31.4883 9.75098 31.4883C9.54264 31.4883 9.35872 31.5208 9.19922 31.5859C9.03971 31.651 8.90462 31.7422 8.79395 31.8594C8.68327 31.9766 8.59538 32.1165 8.53027 32.2793C8.46842 32.4388 8.42773 32.6146 8.4082 32.8066L8.1543 32.9531C8.1543 32.6341 8.18522 32.3346 8.24707 32.0547C8.31217 31.7747 8.41146 31.5273 8.54492 31.3125C8.67839 31.0944 8.84766 30.9251 9.05273 30.8047C9.26107 30.681 9.50846 30.6191 9.79492 30.6191C9.86003 30.6191 9.9349 30.6273 10.0195 30.6436C10.1042 30.6566 10.1628 30.6712 10.1953 30.6875ZM13.125 36.0977C12.7572 36.0977 12.4235 36.0358 12.124 35.9121C11.8278 35.7852 11.5723 35.6077 11.3574 35.3799C11.1458 35.152 10.9831 34.8818 10.8691 34.5693C10.7552 34.2568 10.6982 33.915 10.6982 33.5439V33.3389C10.6982 32.9092 10.7617 32.5267 10.8887 32.1914C11.0156 31.8529 11.1882 31.5664 11.4062 31.332C11.6243 31.0977 11.8717 30.9202 12.1484 30.7998C12.4251 30.6794 12.7116 30.6191 13.0078 30.6191C13.3854 30.6191 13.7109 30.6842 13.9844 30.8145C14.2611 30.9447 14.4873 31.127 14.6631 31.3613C14.8389 31.5924 14.9691 31.8659 15.0537 32.1816C15.1383 32.4941 15.1807 32.8359 15.1807 33.207V33.6123H11.2354V32.875H14.2773V32.8066C14.2643 32.5723 14.2155 32.3444 14.1309 32.123C14.0495 31.9017 13.9193 31.7194 13.7402 31.5762C13.5612 31.4329 13.3171 31.3613 13.0078 31.3613C12.8027 31.3613 12.6139 31.4053 12.4414 31.4932C12.2689 31.5778 12.1208 31.7048 11.9971 31.874C11.8734 32.0433 11.7773 32.25 11.709 32.4941C11.6406 32.7383 11.6064 33.0199 11.6064 33.3389V33.5439C11.6064 33.7946 11.6406 34.0306 11.709 34.252C11.7806 34.4701 11.8831 34.6621 12.0166 34.8281C12.1533 34.9941 12.3177 35.1243 12.5098 35.2188C12.7051 35.3132 12.9264 35.3604 13.1738 35.3604C13.4928 35.3604 13.763 35.2952 13.9844 35.165C14.2057 35.0348 14.3994 34.8607 14.5654 34.6426L15.1123 35.0771C14.9984 35.2497 14.8535 35.4141 14.6777 35.5703C14.502 35.7266 14.2855 35.8535 14.0283 35.9512C13.7744 36.0488 13.4733 36.0977 13.125 36.0977ZM19.3506 35.0967V32.377C19.3506 32.1686 19.3083 31.988 19.2236 31.835C19.1423 31.6787 19.0186 31.5583 18.8525 31.4736C18.6865 31.389 18.4814 31.3467 18.2373 31.3467C18.0094 31.3467 17.8092 31.3857 17.6367 31.4639C17.4674 31.542 17.334 31.6445 17.2363 31.7715C17.1419 31.8984 17.0947 32.0352 17.0947 32.1816H16.1914C16.1914 31.9928 16.2402 31.8057 16.3379 31.6201C16.4355 31.4346 16.5755 31.2669 16.7578 31.1172C16.9434 30.9642 17.1647 30.8438 17.4219 30.7559C17.6823 30.6647 17.972 30.6191 18.291 30.6191C18.6751 30.6191 19.0137 30.6842 19.3066 30.8145C19.6029 30.9447 19.834 31.1416 20 31.4053C20.1693 31.6657 20.2539 31.9928 20.2539 32.3867V34.8477C20.2539 35.0234 20.2686 35.2106 20.2979 35.4092C20.3304 35.6077 20.3776 35.7786 20.4395 35.9219V36H19.4971C19.4515 35.8958 19.4157 35.7575 19.3896 35.585C19.3636 35.4092 19.3506 35.2464 19.3506 35.0967ZM19.5068 32.7969L19.5166 33.4316H18.6035C18.3464 33.4316 18.1169 33.4528 17.915 33.4951C17.7132 33.5342 17.5439 33.5944 17.4072 33.6758C17.2705 33.7572 17.1663 33.8597 17.0947 33.9834C17.0231 34.1038 16.9873 34.2454 16.9873 34.4082C16.9873 34.5742 17.0247 34.7256 17.0996 34.8623C17.1745 34.999 17.2868 35.1081 17.4365 35.1895C17.5895 35.2676 17.7767 35.3066 17.998 35.3066C18.2747 35.3066 18.5189 35.248 18.7305 35.1309C18.9421 35.0137 19.1097 34.8704 19.2334 34.7012C19.3604 34.5319 19.4287 34.3675 19.4385 34.208L19.8242 34.6426C19.8014 34.7793 19.7396 34.9307 19.6387 35.0967C19.5378 35.2627 19.4027 35.4222 19.2334 35.5752C19.0674 35.7249 18.8688 35.8503 18.6377 35.9512C18.4098 36.0488 18.1527 36.0977 17.8662 36.0977C17.5081 36.0977 17.194 36.0277 16.9238 35.8877C16.6569 35.7477 16.4486 35.5605 16.2988 35.3262C16.1523 35.0885 16.0791 34.8232 16.0791 34.5303C16.0791 34.2471 16.1344 33.998 16.2451 33.7832C16.3558 33.5651 16.5153 33.3844 16.7236 33.2412C16.932 33.0947 17.1826 32.984 17.4756 32.9092C17.7686 32.8343 18.0957 32.7969 18.457 32.7969H19.5068ZM23.8867 30.7168V31.4102H21.0303V30.7168H23.8867ZM21.9971 29.4326H22.9004V34.6914C22.9004 34.8704 22.9281 35.0055 22.9834 35.0967C23.0387 35.1878 23.1104 35.248 23.1982 35.2773C23.2861 35.3066 23.3805 35.3213 23.4814 35.3213C23.5563 35.3213 23.6344 35.3148 23.7158 35.3018C23.8005 35.2855 23.8639 35.2725 23.9062 35.2627L23.9111 36C23.8395 36.0228 23.7451 36.0439 23.6279 36.0635C23.514 36.0863 23.3757 36.0977 23.2129 36.0977C22.9915 36.0977 22.7881 36.0537 22.6025 35.9658C22.417 35.8779 22.2689 35.7314 22.1582 35.5264C22.0508 35.318 21.9971 35.0381 21.9971 34.6865V29.4326ZM27.1387 36.0977C26.7708 36.0977 26.4372 36.0358 26.1377 35.9121C25.8415 35.7852 25.5859 35.6077 25.3711 35.3799C25.1595 35.152 24.9967 34.8818 24.8828 34.5693C24.7689 34.2568 24.7119 33.915 24.7119 33.5439V33.3389C24.7119 32.9092 24.7754 32.5267 24.9023 32.1914C25.0293 31.8529 25.2018 31.5664 25.4199 31.332C25.638 31.0977 25.8854 30.9202 26.1621 30.7998C26.4388 30.6794 26.7253 30.6191 27.0215 30.6191C27.3991 30.6191 27.7246 30.6842 27.998 30.8145C28.2747 30.9447 28.501 31.127 28.6768 31.3613C28.8525 31.5924 28.9827 31.8659 29.0674 32.1816C29.152 32.4941 29.1943 32.8359 29.1943 33.207V33.6123H25.249V32.875H28.291V32.8066C28.278 32.5723 28.2292 32.3444 28.1445 32.123C28.0632 31.9017 27.9329 31.7194 27.7539 31.5762C27.5749 31.4329 27.3307 31.3613 27.0215 31.3613C26.8164 31.3613 26.6276 31.4053 26.4551 31.4932C26.2826 31.5778 26.1344 31.7048 26.0107 31.874C25.887 32.0433 25.791 32.25 25.7227 32.4941C25.6543 32.7383 25.6201 33.0199 25.6201 33.3389V33.5439C25.6201 33.7946 25.6543 34.0306 25.7227 34.252C25.7943 34.4701 25.8968 34.6621 26.0303 34.8281C26.167 34.9941 26.3314 35.1243 26.5234 35.2188C26.7188 35.3132 26.9401 35.3604 27.1875 35.3604C27.5065 35.3604 27.7767 35.2952 27.998 35.165C28.2194 35.0348 28.4131 34.8607 28.5791 34.6426L29.126 35.0771C29.012 35.2497 28.8672 35.4141 28.6914 35.5703C28.5156 35.7266 28.2992 35.8535 28.042 35.9512C27.7881 36.0488 27.487 36.0977 27.1387 36.0977Z" fill="#AAAAAA"/>
<path d="M15 8.32733V15.6537" stroke="#AAAAAA" stroke-width="1.5" stroke-linecap="round" stroke-linejoin="round"/>
<path d="M18.6667 11.9905H11.3333" stroke="#AAAAAA" stroke-width="1.5" stroke-linecap="round" stroke-linejoin="round"/>
<path fill-rule="evenodd" clip-rule="evenodd" d="M19.6857 2H10.3143C7.04762 2 5 4.31208 5 7.58516V16.4148C5 19.6879 7.0381 22 10.3143 22H19.6857C22.9619 22 25 19.6879 25 16.4148V7.58516C25 4.31208 22.9619 2 19.6857 2Z" stroke="#AAAAAA" stroke-width="1.5" stroke-linecap="round" stroke-linejoin="round"/>
</svg>
