<svg width="27" height="39" viewBox="0 0 27 39" fill="none" xmlns="http://www.w3.org/2000/svg">
<path d="M11.1572 20.7714V17.7047C11.1572 16.9246 11.7931 16.2908 12.581 16.2856H15.4671C16.2587 16.2856 16.9005 16.9209 16.9005 17.7047V17.7047V20.7809C16.9003 21.4432 17.4343 21.9845 18.103 22H20.0271C21.9451 22 23.5 20.4607 23.5 18.5618V18.5618V9.83784C23.4898 9.09083 23.1355 8.38935 22.538 7.93303L15.9577 2.6853C14.8049 1.77157 13.1662 1.77157 12.0134 2.6853L5.46203 7.94256C4.86226 8.39702 4.50739 9.09967 4.5 9.84736V18.5618C4.5 20.4607 6.05488 22 7.97291 22H9.89696C10.5824 22 11.138 21.4499 11.138 20.7714V20.7714" stroke="#AAAAAA" stroke-width="1.5" stroke-linecap="round" stroke-linejoin="round"/>
<path d="M5.51172 31.9473V32.7139H1.66406V31.9473H5.51172ZM1.81055 28.8906V36H0.868164V28.8906H1.81055ZM6.33203 28.8906V36H5.39453V28.8906H6.33203ZM7.63086 33.417V33.3047C7.63086 32.9238 7.6862 32.5706 7.79688 32.2451C7.90755 31.9163 8.06706 31.6315 8.27539 31.3906C8.48372 31.1465 8.736 30.9577 9.03223 30.8242C9.32845 30.6875 9.66048 30.6191 10.0283 30.6191C10.3994 30.6191 10.7331 30.6875 11.0293 30.8242C11.3288 30.9577 11.5827 31.1465 11.791 31.3906C12.0026 31.6315 12.1637 31.9163 12.2744 32.2451C12.3851 32.5706 12.4404 32.9238 12.4404 33.3047V33.417C12.4404 33.7979 12.3851 34.151 12.2744 34.4766C12.1637 34.8021 12.0026 35.0869 11.791 35.3311C11.5827 35.5719 11.3304 35.7607 11.0342 35.8975C10.7412 36.0309 10.4092 36.0977 10.0381 36.0977C9.66699 36.0977 9.33333 36.0309 9.03711 35.8975C8.74089 35.7607 8.48698 35.5719 8.27539 35.3311C8.06706 35.0869 7.90755 34.8021 7.79688 34.4766C7.6862 34.151 7.63086 33.7979 7.63086 33.417ZM8.53418 33.3047V33.417C8.53418 33.6807 8.5651 33.9297 8.62695 34.1641C8.6888 34.3952 8.78158 34.6003 8.90527 34.7793C9.03223 34.9583 9.1901 35.0999 9.37891 35.2041C9.56771 35.305 9.78743 35.3555 10.0381 35.3555C10.2855 35.3555 10.502 35.305 10.6875 35.2041C10.8763 35.0999 11.0326 34.9583 11.1562 34.7793C11.2799 34.6003 11.3727 34.3952 11.4346 34.1641C11.4997 33.9297 11.5322 33.6807 11.5322 33.417V33.3047C11.5322 33.0443 11.4997 32.7985 11.4346 32.5674C11.3727 32.333 11.2783 32.1263 11.1514 31.9473C11.0277 31.765 10.8714 31.6217 10.6826 31.5176C10.4971 31.4134 10.279 31.3613 10.0283 31.3613C9.78092 31.3613 9.56283 31.4134 9.37402 31.5176C9.18848 31.6217 9.03223 31.765 8.90527 31.9473C8.78158 32.1263 8.6888 32.333 8.62695 32.5674C8.5651 32.7985 8.53418 33.0443 8.53418 33.3047ZM14.4717 31.7666V36H13.5635V30.7168H14.4229L14.4717 31.7666ZM14.2861 33.1582L13.8662 33.1436C13.8695 32.7822 13.9167 32.4486 14.0078 32.1426C14.099 31.8333 14.234 31.5648 14.4131 31.3369C14.5921 31.109 14.8151 30.9333 15.082 30.8096C15.349 30.6826 15.6582 30.6191 16.0098 30.6191C16.2572 30.6191 16.485 30.6549 16.6934 30.7266C16.9017 30.7949 17.0824 30.904 17.2354 31.0537C17.3883 31.2035 17.5072 31.3955 17.5918 31.6299C17.6764 31.8643 17.7188 32.1475 17.7188 32.4795V36H16.8154V32.5234C16.8154 32.2467 16.7682 32.0254 16.6738 31.8594C16.5827 31.6934 16.4525 31.5729 16.2832 31.498C16.1139 31.4199 15.9154 31.3809 15.6875 31.3809C15.4206 31.3809 15.1976 31.4281 15.0186 31.5225C14.8395 31.6169 14.6963 31.7471 14.5889 31.9131C14.4814 32.0791 14.4033 32.2695 14.3545 32.4844C14.3089 32.696 14.2861 32.9206 14.2861 33.1582ZM17.709 32.6602L17.1035 32.8457C17.1068 32.556 17.154 32.2777 17.2451 32.0107C17.3395 31.7438 17.4746 31.5062 17.6504 31.2979C17.8294 31.0895 18.0492 30.9251 18.3096 30.8047C18.57 30.681 18.8678 30.6191 19.2031 30.6191C19.4863 30.6191 19.737 30.6566 19.9551 30.7314C20.1764 30.8063 20.362 30.9219 20.5117 31.0781C20.6647 31.2311 20.7803 31.4281 20.8584 31.6689C20.9365 31.9098 20.9756 32.1963 20.9756 32.5283V36H20.0674V32.5186C20.0674 32.2223 20.0202 31.9928 19.9258 31.8301C19.8346 31.6641 19.7044 31.5485 19.5352 31.4834C19.3691 31.415 19.1706 31.3809 18.9395 31.3809C18.7409 31.3809 18.5651 31.415 18.4121 31.4834C18.2591 31.5518 18.1305 31.6462 18.0264 31.7666C17.9222 31.8838 17.8424 32.0189 17.7871 32.1719C17.735 32.3249 17.709 32.4876 17.709 32.6602ZM24.5352 36.0977C24.1673 36.0977 23.8337 36.0358 23.5342 35.9121C23.238 35.7852 22.9824 35.6077 22.7676 35.3799C22.556 35.152 22.3932 34.8818 22.2793 34.5693C22.1654 34.2568 22.1084 33.915 22.1084 33.5439V33.3389C22.1084 32.9092 22.1719 32.5267 22.2988 32.1914C22.4258 31.8529 22.5983 31.5664 22.8164 31.332C23.0345 31.0977 23.2819 30.9202 23.5586 30.7998C23.8353 30.6794 24.1217 30.6191 24.418 30.6191C24.7956 30.6191 25.1211 30.6842 25.3945 30.8145C25.6712 30.9447 25.8975 31.127 26.0732 31.3613C26.249 31.5924 26.3792 31.8659 26.4639 32.1816C26.5485 32.4941 26.5908 32.8359 26.5908 33.207V33.6123H22.6455V32.875H25.6875V32.8066C25.6745 32.5723 25.6257 32.3444 25.541 32.123C25.4596 31.9017 25.3294 31.7194 25.1504 31.5762C24.9714 31.4329 24.7272 31.3613 24.418 31.3613C24.2129 31.3613 24.0241 31.4053 23.8516 31.4932C23.679 31.5778 23.5309 31.7048 23.4072 31.874C23.2835 32.0433 23.1875 32.25 23.1191 32.4941C23.0508 32.7383 23.0166 33.0199 23.0166 33.3389V33.5439C23.0166 33.7946 23.0508 34.0306 23.1191 34.252C23.1908 34.4701 23.2933 34.6621 23.4268 34.8281C23.5635 34.9941 23.7279 35.1243 23.9199 35.2188C24.1152 35.3132 24.3366 35.3604 24.584 35.3604C24.903 35.3604 25.1732 35.2952 25.3945 35.165C25.6159 35.0348 25.8096 34.8607 25.9756 34.6426L26.5225 35.0771C26.4085 35.2497 26.2637 35.4141 26.0879 35.5703C25.9121 35.7266 25.6956 35.8535 25.4385 35.9512C25.1846 36.0488 24.8835 36.0977 24.5352 36.0977Z" fill="#AAAAAA"/>
</svg>
