<svg width="31" height="39" viewBox="0 0 31 39" fill="none" xmlns="http://www.w3.org/2000/svg">
<path d="M3.64941 33.2119H1.75V32.4453H3.64941C4.01725 32.4453 4.3151 32.3867 4.54297 32.2695C4.77083 32.1523 4.93685 31.9896 5.04102 31.7812C5.14844 31.5729 5.20215 31.3353 5.20215 31.0684C5.20215 30.8242 5.14844 30.5947 5.04102 30.3799C4.93685 30.165 4.77083 29.9925 4.54297 29.8623C4.3151 29.7288 4.01725 29.6621 3.64941 29.6621H1.96973V36H1.02734V28.8906H3.64941C4.18652 28.8906 4.64062 28.9834 5.01172 29.1689C5.38281 29.3545 5.66439 29.6117 5.85645 29.9404C6.0485 30.266 6.14453 30.6387 6.14453 31.0586C6.14453 31.5143 6.0485 31.9033 5.85645 32.2256C5.66439 32.5479 5.38281 32.7936 5.01172 32.9629C4.64062 33.1289 4.18652 33.2119 3.64941 33.2119ZM9.32324 36.0977C8.9554 36.0977 8.62174 36.0358 8.32227 35.9121C8.02604 35.7852 7.77051 35.6077 7.55566 35.3799C7.34408 35.152 7.18132 34.8818 7.06738 34.5693C6.95345 34.2568 6.89648 33.915 6.89648 33.5439V33.3389C6.89648 32.9092 6.95996 32.5267 7.08691 32.1914C7.21387 31.8529 7.38639 31.5664 7.60449 31.332C7.82259 31.0977 8.06999 30.9202 8.34668 30.7998C8.62337 30.6794 8.90983 30.6191 9.20605 30.6191C9.58366 30.6191 9.90918 30.6842 10.1826 30.8145C10.4593 30.9447 10.6855 31.127 10.8613 31.3613C11.0371 31.5924 11.1673 31.8659 11.252 32.1816C11.3366 32.4941 11.3789 32.8359 11.3789 33.207V33.6123H7.43359V32.875H10.4756V32.8066C10.4626 32.5723 10.4137 32.3444 10.3291 32.123C10.2477 31.9017 10.1175 31.7194 9.93848 31.5762C9.75944 31.4329 9.5153 31.3613 9.20605 31.3613C9.00098 31.3613 8.81217 31.4053 8.63965 31.4932C8.46712 31.5778 8.31901 31.7048 8.19531 31.874C8.07161 32.0433 7.97559 32.25 7.90723 32.4941C7.83887 32.7383 7.80469 33.0199 7.80469 33.3389V33.5439C7.80469 33.7946 7.83887 34.0306 7.90723 34.252C7.97884 34.4701 8.08138 34.6621 8.21484 34.8281C8.35156 34.9941 8.51595 35.1243 8.70801 35.2188C8.90332 35.3132 9.12467 35.3604 9.37207 35.3604C9.69108 35.3604 9.96126 35.2952 10.1826 35.165C10.404 35.0348 10.5977 34.8607 10.7637 34.6426L11.3105 35.0771C11.1966 35.2497 11.0518 35.4141 10.876 35.5703C10.7002 35.7266 10.4837 35.8535 10.2266 35.9512C9.97266 36.0488 9.67155 36.0977 9.32324 36.0977ZM12.1943 33.417V33.3047C12.1943 32.9238 12.2497 32.5706 12.3604 32.2451C12.471 31.9163 12.6305 31.6315 12.8389 31.3906C13.0472 31.1465 13.2995 30.9577 13.5957 30.8242C13.8919 30.6875 14.224 30.6191 14.5918 30.6191C14.9629 30.6191 15.2965 30.6875 15.5928 30.8242C15.8923 30.9577 16.1462 31.1465 16.3545 31.3906C16.5661 31.6315 16.7272 31.9163 16.8379 32.2451C16.9486 32.5706 17.0039 32.9238 17.0039 33.3047V33.417C17.0039 33.7979 16.9486 34.151 16.8379 34.4766C16.7272 34.8021 16.5661 35.0869 16.3545 35.3311C16.1462 35.5719 15.8939 35.7607 15.5977 35.8975C15.3047 36.0309 14.9727 36.0977 14.6016 36.0977C14.2305 36.0977 13.8968 36.0309 13.6006 35.8975C13.3044 35.7607 13.0505 35.5719 12.8389 35.3311C12.6305 35.0869 12.471 34.8021 12.3604 34.4766C12.2497 34.151 12.1943 33.7979 12.1943 33.417ZM13.0977 33.3047V33.417C13.0977 33.6807 13.1286 33.9297 13.1904 34.1641C13.2523 34.3952 13.3451 34.6003 13.4688 34.7793C13.5957 34.9583 13.7536 35.0999 13.9424 35.2041C14.1312 35.305 14.3509 35.3555 14.6016 35.3555C14.849 35.3555 15.0654 35.305 15.251 35.2041C15.4398 35.0999 15.596 34.9583 15.7197 34.7793C15.8434 34.6003 15.9362 34.3952 15.998 34.1641C16.0632 33.9297 16.0957 33.6807 16.0957 33.417V33.3047C16.0957 33.0443 16.0632 32.7985 15.998 32.5674C15.9362 32.333 15.8418 32.1263 15.7148 31.9473C15.5911 31.765 15.4349 31.6217 15.2461 31.5176C15.0605 31.4134 14.8424 31.3613 14.5918 31.3613C14.3444 31.3613 14.1263 31.4134 13.9375 31.5176C13.752 31.6217 13.5957 31.765 13.4688 31.9473C13.3451 32.1263 13.2523 32.333 13.1904 32.5674C13.1286 32.7985 13.0977 33.0443 13.0977 33.3047ZM19.04 31.7324V38.0312H18.1318V30.7168H18.9619L19.04 31.7324ZM22.5996 33.3145V33.417C22.5996 33.8011 22.554 34.1576 22.4629 34.4863C22.3717 34.8118 22.2383 35.0951 22.0625 35.3359C21.89 35.5768 21.6768 35.764 21.4229 35.8975C21.1689 36.0309 20.8776 36.0977 20.5488 36.0977C20.2135 36.0977 19.9173 36.0423 19.6602 35.9316C19.403 35.821 19.1849 35.6598 19.0059 35.4482C18.8268 35.2367 18.6836 34.9827 18.5762 34.6865C18.472 34.3903 18.4004 34.0566 18.3613 33.6855V33.1387C18.4004 32.748 18.4736 32.3981 18.5811 32.0889C18.6885 31.7796 18.8301 31.516 19.0059 31.2979C19.1849 31.0765 19.4014 30.9089 19.6553 30.7949C19.9092 30.6777 20.2021 30.6191 20.5342 30.6191C20.8662 30.6191 21.1608 30.6842 21.418 30.8145C21.6751 30.9414 21.8916 31.1237 22.0674 31.3613C22.2432 31.599 22.375 31.8838 22.4629 32.2158C22.554 32.5446 22.5996 32.9108 22.5996 33.3145ZM21.6914 33.417V33.3145C21.6914 33.0508 21.6637 32.8034 21.6084 32.5723C21.5531 32.3379 21.4668 32.1328 21.3496 31.957C21.2357 31.778 21.0892 31.638 20.9102 31.5371C20.7311 31.4329 20.5179 31.3809 20.2705 31.3809C20.0426 31.3809 19.8441 31.4199 19.6748 31.498C19.5088 31.5762 19.3672 31.682 19.25 31.8154C19.1328 31.9456 19.0368 32.0954 18.9619 32.2646C18.8903 32.4307 18.8366 32.6032 18.8008 32.7822V34.0469C18.8659 34.2747 18.957 34.4896 19.0742 34.6914C19.1914 34.89 19.3477 35.0511 19.543 35.1748C19.7383 35.2952 19.984 35.3555 20.2803 35.3555C20.5244 35.3555 20.7344 35.305 20.9102 35.2041C21.0892 35.0999 21.2357 34.9583 21.3496 34.7793C21.4668 34.6003 21.5531 34.3952 21.6084 34.1641C21.6637 33.9297 21.6914 33.6807 21.6914 33.417ZM24.7334 28.5V36H23.8252V28.5H24.7334ZM28.376 36.0977C28.0081 36.0977 27.6745 36.0358 27.375 35.9121C27.0788 35.7852 26.8232 35.6077 26.6084 35.3799C26.3968 35.152 26.234 34.8818 26.1201 34.5693C26.0062 34.2568 25.9492 33.915 25.9492 33.5439V33.3389C25.9492 32.9092 26.0127 32.5267 26.1396 32.1914C26.2666 31.8529 26.4391 31.5664 26.6572 31.332C26.8753 31.0977 27.1227 30.9202 27.3994 30.7998C27.6761 30.6794 27.9626 30.6191 28.2588 30.6191C28.6364 30.6191 28.9619 30.6842 29.2354 30.8145C29.512 30.9447 29.7383 31.127 29.9141 31.3613C30.0898 31.5924 30.2201 31.8659 30.3047 32.1816C30.3893 32.4941 30.4316 32.8359 30.4316 33.207V33.6123H26.4863V32.875H29.5283V32.8066C29.5153 32.5723 29.4665 32.3444 29.3818 32.123C29.3005 31.9017 29.1702 31.7194 28.9912 31.5762C28.8122 31.4329 28.568 31.3613 28.2588 31.3613C28.0537 31.3613 27.8649 31.4053 27.6924 31.4932C27.5199 31.5778 27.3717 31.7048 27.248 31.874C27.1243 32.0433 27.0283 32.25 26.96 32.4941C26.8916 32.7383 26.8574 33.0199 26.8574 33.3389V33.5439C26.8574 33.7946 26.8916 34.0306 26.96 34.252C27.0316 34.4701 27.1341 34.6621 27.2676 34.8281C27.4043 34.9941 27.5687 35.1243 27.7607 35.2188C27.9561 35.3132 28.1774 35.3604 28.4248 35.3604C28.7438 35.3604 29.014 35.2952 29.2354 35.165C29.4567 35.0348 29.6504 34.8607 29.8164 34.6426L30.3633 35.0771C30.2493 35.2497 30.1045 35.4141 29.9287 35.5703C29.7529 35.7266 29.5365 35.8535 29.2793 35.9512C29.0254 36.0488 28.7243 36.0977 28.376 36.0977Z" fill="#7000FF"/>
<path fill-rule="evenodd" clip-rule="evenodd" d="M19.1583 8.23285C19.1583 10.5825 17.2851 12.4666 14.949 12.4666C12.6129 12.4666 10.7397 10.5825 10.7397 8.23285C10.7397 5.88227 12.6129 4 14.949 4C17.2851 4 19.1583 5.88227 19.1583 8.23285ZM14.949 20C11.5178 20 8.58809 19.456 8.58809 17.2802C8.58809 15.1034 11.499 14.5396 14.949 14.5396C18.3802 14.5396 21.31 15.0836 21.31 17.2604C21.31 19.4362 18.399 20 14.949 20ZM20.9571 8.30922C20.9571 9.50703 20.5998 10.6229 19.973 11.5505C19.9086 11.646 19.9659 11.7748 20.0796 11.7946C20.2363 11.8216 20.3984 11.8369 20.5631 11.8414C22.2062 11.8846 23.6809 10.821 24.0883 9.21974C24.6918 6.84123 22.9198 4.7059 20.6634 4.7059C20.4181 4.7059 20.1835 4.73201 19.9551 4.77884C19.9238 4.78605 19.8907 4.80046 19.8728 4.82838C19.8513 4.8626 19.8674 4.90853 19.8889 4.93825C20.5667 5.8938 20.9571 7.05918 20.9571 8.30922ZM23.6782 13.5126C24.7823 13.7296 25.5084 14.1727 25.8093 14.8166C26.0636 15.3453 26.0636 15.9586 25.8093 16.4864C25.349 17.4851 23.8654 17.8058 23.2887 17.8886C23.1696 17.9066 23.0738 17.8031 23.0864 17.6833C23.3809 14.9157 21.0377 13.6035 20.4315 13.3018C20.4055 13.2883 20.4002 13.2676 20.4028 13.255C20.4046 13.246 20.4154 13.2316 20.4351 13.2289C21.7468 13.2046 23.1571 13.3847 23.6782 13.5126ZM9.43711 11.8413C9.60186 11.8368 9.76304 11.8224 9.92063 11.7945C10.0343 11.7747 10.0916 11.6459 10.0272 11.5504C9.4004 10.6228 9.04313 9.50694 9.04313 8.30913C9.04313 7.05909 9.43353 5.89371 10.1113 4.93816C10.1328 4.90844 10.1481 4.86251 10.1275 4.82829C10.1096 4.80127 10.0755 4.78596 10.0451 4.77875C9.81586 4.73192 9.58127 4.70581 9.33593 4.70581C7.07951 4.70581 5.30751 6.84114 5.91191 9.21965C6.31932 10.8209 7.79405 11.8845 9.43711 11.8413ZM9.59694 13.2545C9.59962 13.268 9.59425 13.2878 9.56918 13.3022C8.9621 13.6039 6.61883 14.9161 6.91342 17.6827C6.92595 17.8034 6.83104 17.9061 6.71195 17.889C6.13531 17.8061 4.65163 17.4855 4.19139 16.4867C3.9362 15.9581 3.9362 15.3457 4.19139 14.817C4.49225 14.1731 5.21752 13.73 6.32156 13.512C6.84358 13.385 8.25294 13.2049 9.5656 13.2292C9.5853 13.2319 9.59515 13.2464 9.59694 13.2545Z" fill="#7000FF"/>
</svg>
