<svg width="29" height="39" viewBox="0 0 29 39" fill="none" xmlns="http://www.w3.org/2000/svg">
<path fill-rule="evenodd" clip-rule="evenodd" d="M14.4848 15.3462C10.6171 15.3462 7.31429 15.931 7.31429 18.2729C7.31429 20.6148 10.5962 21.2205 14.4848 21.2205C18.3524 21.2205 21.6543 20.6348 21.6543 18.2938C21.6543 15.9529 18.3733 15.3462 14.4848 15.3462Z" stroke="#AAAAAA" stroke-width="1.5" stroke-linecap="round" stroke-linejoin="round"/>
<path fill-rule="evenodd" clip-rule="evenodd" d="M14.4848 12.0059C17.0229 12.0059 19.08 9.94779 19.08 7.40969C19.08 4.8716 17.0229 2.81445 14.4848 2.81445C11.9467 2.81445 9.88858 4.8716 9.88858 7.40969C9.88001 9.93922 11.9238 11.9973 14.4524 12.0059H14.4848Z" stroke="#AAAAAA" stroke-width="1.42857" stroke-linecap="round" stroke-linejoin="round"/>
<path d="M3.65527 33.2119H1.75586V32.4453H3.65527C4.02311 32.4453 4.32096 32.3867 4.54883 32.2695C4.77669 32.1523 4.94271 31.9896 5.04688 31.7812C5.1543 31.5729 5.20801 31.3353 5.20801 31.0684C5.20801 30.8242 5.1543 30.5947 5.04688 30.3799C4.94271 30.165 4.77669 29.9925 4.54883 29.8623C4.32096 29.7288 4.02311 29.6621 3.65527 29.6621H1.97559V36H1.0332V28.8906H3.65527C4.19238 28.8906 4.64648 28.9834 5.01758 29.1689C5.38867 29.3545 5.67025 29.6117 5.8623 29.9404C6.05436 30.266 6.15039 30.6387 6.15039 31.0586C6.15039 31.5143 6.05436 31.9033 5.8623 32.2256C5.67025 32.5479 5.38867 32.7936 5.01758 32.9629C4.64648 33.1289 4.19238 33.2119 3.65527 33.2119ZM8.1084 31.5469V36H7.20508V30.7168H8.08398L8.1084 31.5469ZM9.75879 30.6875L9.75391 31.5273C9.67904 31.5111 9.60742 31.5013 9.53906 31.498C9.47396 31.4915 9.39909 31.4883 9.31445 31.4883C9.10612 31.4883 8.9222 31.5208 8.7627 31.5859C8.60319 31.651 8.4681 31.7422 8.35742 31.8594C8.24674 31.9766 8.15885 32.1165 8.09375 32.2793C8.0319 32.4388 7.99121 32.6146 7.97168 32.8066L7.71777 32.9531C7.71777 32.6341 7.7487 32.3346 7.81055 32.0547C7.87565 31.7747 7.97493 31.5273 8.1084 31.3125C8.24186 31.0944 8.41113 30.9251 8.61621 30.8047C8.82454 30.681 9.07194 30.6191 9.3584 30.6191C9.4235 30.6191 9.49837 30.6273 9.58301 30.6436C9.66764 30.6566 9.72624 30.6712 9.75879 30.6875ZM10.2568 33.417V33.3047C10.2568 32.9238 10.3122 32.5706 10.4229 32.2451C10.5335 31.9163 10.693 31.6315 10.9014 31.3906C11.1097 31.1465 11.362 30.9577 11.6582 30.8242C11.9544 30.6875 12.2865 30.6191 12.6543 30.6191C13.0254 30.6191 13.359 30.6875 13.6553 30.8242C13.9548 30.9577 14.2087 31.1465 14.417 31.3906C14.6286 31.6315 14.7897 31.9163 14.9004 32.2451C15.0111 32.5706 15.0664 32.9238 15.0664 33.3047V33.417C15.0664 33.7979 15.0111 34.151 14.9004 34.4766C14.7897 34.8021 14.6286 35.0869 14.417 35.3311C14.2087 35.5719 13.9564 35.7607 13.6602 35.8975C13.3672 36.0309 13.0352 36.0977 12.6641 36.0977C12.293 36.0977 11.9593 36.0309 11.6631 35.8975C11.3669 35.7607 11.113 35.5719 10.9014 35.3311C10.693 35.0869 10.5335 34.8021 10.4229 34.4766C10.3122 34.151 10.2568 33.7979 10.2568 33.417ZM11.1602 33.3047V33.417C11.1602 33.6807 11.1911 33.9297 11.2529 34.1641C11.3148 34.3952 11.4076 34.6003 11.5312 34.7793C11.6582 34.9583 11.8161 35.0999 12.0049 35.2041C12.1937 35.305 12.4134 35.3555 12.6641 35.3555C12.9115 35.3555 13.1279 35.305 13.3135 35.2041C13.5023 35.0999 13.6585 34.9583 13.7822 34.7793C13.9059 34.6003 13.9987 34.3952 14.0605 34.1641C14.1257 33.9297 14.1582 33.6807 14.1582 33.417V33.3047C14.1582 33.0443 14.1257 32.7985 14.0605 32.5674C13.9987 32.333 13.9043 32.1263 13.7773 31.9473C13.6536 31.765 13.4974 31.6217 13.3086 31.5176C13.123 31.4134 12.9049 31.3613 12.6543 31.3613C12.4069 31.3613 12.1888 31.4134 12 31.5176C11.8145 31.6217 11.6582 31.765 11.5312 31.9473C11.4076 32.1263 11.3148 32.333 11.2529 32.5674C11.1911 32.7985 11.1602 33.0443 11.1602 33.3047ZM17.4053 36H16.502V30.2578C16.502 29.8574 16.5801 29.5189 16.7363 29.2422C16.8926 28.9655 17.1156 28.7555 17.4053 28.6123C17.695 28.4691 18.0384 28.3975 18.4355 28.3975C18.6699 28.3975 18.8994 28.4268 19.124 28.4854C19.3486 28.5407 19.5798 28.6107 19.8174 28.6953L19.666 29.457C19.5163 29.3984 19.3421 29.3431 19.1436 29.291C18.9482 29.2357 18.7334 29.208 18.499 29.208C18.1117 29.208 17.8317 29.2959 17.6592 29.4717C17.4899 29.6442 17.4053 29.9062 17.4053 30.2578V36ZM18.4844 30.7168V31.4102H15.667V30.7168H18.4844ZM20.2617 30.7168V36H19.3584V30.7168H20.2617ZM22.7275 28.5V36H21.8193V28.5H22.7275ZM26.3701 36.0977C26.0023 36.0977 25.6686 36.0358 25.3691 35.9121C25.0729 35.7852 24.8174 35.6077 24.6025 35.3799C24.391 35.152 24.2282 34.8818 24.1143 34.5693C24.0003 34.2568 23.9434 33.915 23.9434 33.5439V33.3389C23.9434 32.9092 24.0068 32.5267 24.1338 32.1914C24.2607 31.8529 24.4333 31.5664 24.6514 31.332C24.8695 31.0977 25.1169 30.9202 25.3936 30.7998C25.6702 30.6794 25.9567 30.6191 26.2529 30.6191C26.6305 30.6191 26.9561 30.6842 27.2295 30.8145C27.5062 30.9447 27.7324 31.127 27.9082 31.3613C28.084 31.5924 28.2142 31.8659 28.2988 32.1816C28.3835 32.4941 28.4258 32.8359 28.4258 33.207V33.6123H24.4805V32.875H27.5225V32.8066C27.5094 32.5723 27.4606 32.3444 27.376 32.123C27.2946 31.9017 27.1644 31.7194 26.9854 31.5762C26.8063 31.4329 26.5622 31.3613 26.2529 31.3613C26.0479 31.3613 25.859 31.4053 25.6865 31.4932C25.514 31.5778 25.3659 31.7048 25.2422 31.874C25.1185 32.0433 25.0225 32.25 24.9541 32.4941C24.8857 32.7383 24.8516 33.0199 24.8516 33.3389V33.5439C24.8516 33.7946 24.8857 34.0306 24.9541 34.252C25.0257 34.4701 25.1283 34.6621 25.2617 34.8281C25.3984 34.9941 25.5628 35.1243 25.7549 35.2188C25.9502 35.3132 26.1715 35.3604 26.4189 35.3604C26.738 35.3604 27.0081 35.2952 27.2295 35.165C27.4508 35.0348 27.6445 34.8607 27.8105 34.6426L28.3574 35.0771C28.2435 35.2497 28.0986 35.4141 27.9229 35.5703C27.7471 35.7266 27.5306 35.8535 27.2734 35.9512C27.0195 36.0488 26.7184 36.0977 26.3701 36.0977Z" fill="#AAAAAA"/>
</svg>
